<?xml version="1.0" encoding="UTF-8" standalone="no"?>
<!DOCTYPE svg PUBLIC "-//W3C//DTD SVG 1.1//EN"
 "http://www.w3.org/Graphics/SVG/1.1/DTD/svg11.dtd">
<!-- Generated by graphviz version 2.48.0 (20210717.1556)
 -->
<!-- Title: erc20_proxy_contracts Pages: 1 -->
<svg width="254pt" height="332pt"
 viewBox="0.00 0.00 254.00 332.00" xmlns="http://www.w3.org/2000/svg" xmlns:xlink="http://www.w3.org/1999/xlink">
<g id="graph0" class="graph" transform="scale(1 1) rotate(0) translate(4 328)">
<title>erc20_proxy_contracts</title>
<polygon fill="white" stroke="transparent" points="-4,4 -4,-328 250,-328 250,4 -4,4"/>
<!-- outs -->
<g id="node1" class="node">
<title>outs</title>
<polygon fill="none" stroke="black" points="226,-108 20,-108 20,-72 226,-72 226,-108"/>
<text text-anchor="middle" x="123" y="-86.3" font-family="Times,serif" font-size="14.00">OwnedUpgradeableTokenStorage</text>
</g>
<!-- up -->
<g id="node2" class="node">
<title>up</title>
<polygon fill="none" stroke="black" points="95,-180 7,-180 7,-144 95,-144 95,-180"/>
<text text-anchor="middle" x="51" y="-158.3" font-family="Times,serif" font-size="14.00">Upgradeable</text>
</g>
<!-- outs&#45;&gt;up -->
<g id="edge3" class="edge">
<title>outs&#45;&gt;up</title>
<path fill="none" stroke="black" d="M105.2,-108.3C96.4,-116.86 85.62,-127.34 76,-136.7"/>
<polygon fill="black" stroke="black" points="73.32,-134.42 68.59,-143.9 78.2,-139.43 73.32,-134.42"/>
</g>
<!-- tst -->
<g id="node5" class="node">
<title>tst</title>
<polygon fill="none" stroke="black" points="217,-252 123,-252 123,-216 217,-216 217,-252"/>
<text text-anchor="middle" x="170" y="-230.3" font-family="Times,serif" font-size="14.00">TokenStorage</text>
</g>
<!-- outs&#45;&gt;tst -->
<g id="edge7" class="edge">
<title>outs&#45;&gt;tst</title>
<path fill="none" stroke="black" d="M147.48,-108.23C158.4,-117.44 170.12,-129.81 176,-144 184.12,-163.61 181.83,-187.75 177.94,-205.93"/>
<polygon fill="black" stroke="black" points="174.48,-205.33 175.53,-215.87 181.29,-206.97 174.48,-205.33"/>
</g>
<!-- own -->
<g id="node3" class="node">
<title>own</title>
<polygon fill="none" stroke="black" points="104.5,-252 47.5,-252 47.5,-216 104.5,-216 104.5,-252"/>
<text text-anchor="middle" x="76" y="-230.3" font-family="Times,serif" font-size="14.00">Owned</text>
</g>
<!-- up&#45;&gt;own -->
<g id="edge4" class="edge">
<title>up&#45;&gt;own</title>
<path fill="none" stroke="black" d="M57.18,-180.3C60,-188.19 63.39,-197.7 66.52,-206.45"/>
<polygon fill="black" stroke="black" points="63.23,-207.66 69.89,-215.9 69.82,-205.3 63.23,-207.66"/>
</g>
<!-- stg -->
<g id="node4" class="node">
<title>stg</title>
<polygon fill="none" stroke="black" points="152.5,-324 93.5,-324 93.5,-288 152.5,-288 152.5,-324"/>
<text text-anchor="middle" x="123" y="-302.3" font-family="Times,serif" font-size="14.00">Storage</text>
</g>
<!-- own&#45;&gt;stg -->
<g id="edge5" class="edge">
<title>own&#45;&gt;stg</title>
<path fill="none" stroke="black" d="M87.62,-252.3C93.14,-260.53 99.85,-270.52 105.93,-279.58"/>
<polygon fill="black" stroke="black" points="103.04,-281.54 111.52,-287.9 108.85,-277.64 103.04,-281.54"/>
</g>
<!-- tst&#45;&gt;stg -->
<g id="edge9" class="edge">
<title>tst&#45;&gt;stg</title>
<path fill="none" stroke="black" d="M158.38,-252.3C152.86,-260.53 146.15,-270.52 140.07,-279.58"/>
<polygon fill="black" stroke="black" points="137.15,-277.64 134.48,-287.9 142.96,-281.54 137.15,-277.64"/>
</g>
<!-- tv0 -->
<g id="node6" class="node">
<title>tv0</title>
<polygon fill="none" stroke="black" points="70,-36 0,-36 0,0 70,0 70,-36"/>
<text text-anchor="middle" x="35" y="-14.3" font-family="Times,serif" font-weight="bold" font-size="14.00">TokenV0</text>
</g>
<!-- tv0&#45;&gt;outs -->
<g id="edge1" class="edge">
<title>tv0&#45;&gt;outs</title>
<path fill="none" stroke="black" d="M56.75,-36.3C67.84,-45.12 81.47,-55.97 93.49,-65.53"/>
<polygon fill="black" stroke="black" points="91.49,-68.41 101.5,-71.9 95.85,-62.93 91.49,-68.41"/>
</g>
<!-- tv1 -->
<g id="node7" class="node">
<title>tv1</title>
<polygon fill="none" stroke="black" points="158,-36 88,-36 88,0 158,0 158,-36"/>
<text text-anchor="middle" x="123" y="-14.3" font-family="Times,serif" font-weight="bold" font-size="14.00">TokenV1</text>
</g>
<!-- tv1&#45;&gt;outs -->
<g id="edge2" class="edge">
<title>tv1&#45;&gt;outs</title>
<path fill="none" stroke="black" d="M123,-36.3C123,-44.02 123,-53.29 123,-61.89"/>
<polygon fill="black" stroke="black" points="119.5,-61.9 123,-71.9 126.5,-61.9 119.5,-61.9"/>
</g>
<!-- tvx -->
<g id="node8" class="node">
<title>tvx</title>
<polygon fill="none" stroke="black" points="246,-36 176,-36 176,0 246,0 246,-36"/>
<text text-anchor="middle" x="211" y="-14.3" font-family="Times,serif" font-weight="bold" font-size="14.00">TokenVx</text>
</g>
<!-- tvx&#45;&gt;outs -->
<g id="edge6" class="edge">
<title>tvx&#45;&gt;outs</title>
<path fill="none" stroke="black" d="M189.25,-36.3C178.16,-45.12 164.53,-55.97 152.51,-65.53"/>
<polygon fill="black" stroke="black" points="150.15,-62.93 144.5,-71.9 154.51,-68.41 150.15,-62.93"/>
</g>
<!-- prx -->
<g id="node9" class="node">
<title>prx</title>
<polygon fill="none" stroke="black" points="167,-180 113,-180 113,-144 167,-144 167,-180"/>
<text text-anchor="middle" x="140" y="-158.3" font-family="Times,serif" font-weight="bold" font-size="14.00">Proxy</text>
</g>
<!-- prx&#45;&gt;own -->
<g id="edge10" class="edge">
<title>prx&#45;&gt;own</title>
<path fill="none" stroke="black" d="M124.18,-180.3C116.43,-188.78 106.96,-199.14 98.48,-208.42"/>
<polygon fill="black" stroke="black" points="95.8,-206.15 91.64,-215.9 100.97,-210.88 95.8,-206.15"/>
</g>
<!-- prx&#45;&gt;tst -->
<g id="edge8" class="edge">
<title>prx&#45;&gt;tst</title>
<path fill="none" stroke="black" d="M147.42,-180.3C150.79,-188.19 154.87,-197.7 158.62,-206.45"/>
<polygon fill="black" stroke="black" points="155.51,-208.08 162.67,-215.9 161.95,-205.33 155.51,-208.08"/>
</g>
</g>
</svg>
